<svg xmlns="http://www.w3.org/2000/svg" class="svg verticalOne" version="1.1" xml:space="preserve" enable-background="new 0 0 96.294375 114.759375" x="0px" y="0px" preserveAspectRatio="xMinYMin" viewBox="0 0 96.294375 114.759375" width="96.294375px" height="114.759375px">
  <rect fill="#990000" width="58" height="68" x="19.1471875" y="0"/>
  <polygon fill="#FFFFFF" points="35.6,16.4 35.6,20 38.1,20 38.1,40.1 32.8,40.1 32.8,13.6 35.6,13.6 35.6,10 22.4,10 22.4,13.6 25.2,13.6 25.2,40.1 19.9,40.1 19.9,20 22.4,20 22.4,16.4 10,16.4 10,20 12.8,20 12.8,43.3 17.4,47.9 25.2,47.9 25.2,53.3 22.4,53.3 22.4,58 35.6,58 35.6,53.3 32.8,53.3 32.8,47.9 40.6,47.9 45.2,43.3 45.2,20 48,20 48,16.4" transform="translate(19.1471875,0)"/>
  <g transform="translate(-0.9403125,107.225)">
    <g transform="scale(0.0159375) translate(0, 0)">
      <path transform="translate(0,0) rotate(180) scale(-1, 1)" d="M 125 1516 L 436 1516 L 436 256 L 1006 256 L 1006 0 L 125 0 L 125 1516 Z"/>
      <path transform="translate(1049,0) rotate(180) scale(-1, 1)" d="M 629 -25 C 537 -25 458 -12 392 12 C 326 36 272 72 230 119 C 187 165 156 223 136 291 C 116 359 106 436 106 524 L 106 1516 L 418 1516 L 418 543 C 418 490 421 444 429 406 C 437 368 449 336 467 311 C 484 286 506 268 533 256 C 560 244 593 238 633 238 C 710 238 765 262 798 312 C 831 361 848 437 848 541 L 848 1516 L 1145 1516 L 1145 526 C 1145 438 1135 360 1116 292 C 1096 224 1066 166 1024 119 C 982 72 929 36 864 12 C 798 -12 720 -25 629 -25 Z"/>
      <path transform="translate(2300,0) rotate(180) scale(-1, 1)" d="M 125 1516 L 522 1516 C 624 1516 717 1504 802 1480 C 887 1456 960 1416 1022 1358 C 1084 1300 1132 1223 1166 1127 C 1200 1030 1217 908 1217 762 C 1217 664 1209 577 1193 501 C 1177 425 1155 358 1126 302 C 1096 246 1061 198 1020 160 C 978 121 932 90 881 66 C 829 42 773 25 713 15 C 652 5 588 0 522 0 L 125 0 L 125 1516 Z M 551 260 C 616 260 671 269 716 287 C 761 305 798 333 826 373 C 854 413 874 464 886 528 C 898 592 905 670 905 762 C 905 850 898 926 886 988 C 874 1050 854 1100 826 1140 C 798 1179 761 1208 716 1226 C 670 1244 615 1253 549 1253 L 436 1253 L 436 260 L 551 260 Z"/>
      <path transform="translate(3582,0) rotate(180) scale(-1, 1)" d="M 125 1516 L 522 1516 C 624 1516 717 1504 802 1480 C 887 1456 960 1416 1022 1358 C 1084 1300 1132 1223 1166 1127 C 1200 1030 1217 908 1217 762 C 1217 664 1209 577 1193 501 C 1177 425 1155 358 1126 302 C 1096 246 1061 198 1020 160 C 978 121 932 90 881 66 C 829 42 773 25 713 15 C 652 5 588 0 522 0 L 125 0 L 125 1516 Z M 551 260 C 616 260 671 269 716 287 C 761 305 798 333 826 373 C 854 413 874 464 886 528 C 898 592 905 670 905 762 C 905 850 898 926 886 988 C 874 1050 854 1100 826 1140 C 798 1179 761 1208 716 1226 C 670 1244 615 1253 549 1253 L 436 1253 L 436 260 L 551 260 Z"/>
      <path transform="translate(4864,0) rotate(180) scale(-1, 1)" d="M 432 594 L 6 1516 L 324 1516 L 594 877 L 598 877 L 868 1516 L 1171 1516 L 743 596 L 743 0 L 432 0 L 432 594 Z"/>
    </g>
  </g>
</svg>
